<?xml version="1.0" encoding="utf-8"?>
<!DOCTYPE svg PUBLIC "-//W3C//DTD SVG 20010904//EN" "http://www.w3.org/TR/2001/REC-SVG-20010904/DTD/svg10.dtd">
<svg preserveAspectRatio="xMidYMid meet" version="1.0" viewBox="0 0 1024.000000 1024.000000" xmlns="http://www.w3.org/2000/svg">
<metadata>
Created by potrace 1.16, written by Peter Selinger 2001-2019
</metadata>
<g fill="#000000" stroke="none" transform="translate(0.000000,1024.000000) scale(0.100000,-0.100000)">
<path d="M4976 8919 c-78 -12 -166 -54 -244 -117 -88 -70 -120 -116 -211 -295 -134 -263 -158 -293 -426 -527 -98 -86 -181 -161 -524 -479 -58 -53 -151 -132 -207 -177 -56 -44 -133 -108 -171 -143 -37 -34 -153 -125 -256 -202 -172 -127 -223 -160 -370 -243 -93 -53 -41 -83 118 -66 126 13 641 153 865 235 36 13 135 45 220 70 554 163 715 238 890 414 189 190 235 434 104 550 -80 70 -183 80 -319 33 -84 -30 -233 -112 -300 -167 -44 -35 -106 -75 -117 -75 -44 0 76 132 186 204 168 110 264 146 393 146 139 0 239 -54 298 -161 23 -44 30 -69 33 -136 5 -99 -7 -152 -58 -258 -49 -101 -109 -177 -203 -257 -171 -145 -364 -231 -821 -364 -104 -30 -192 -57 -196 -59 -9 -6 -455 -135 -535 -155 -210 -53 -414 -114 -464 -140 -31 -15 -84 -36 -117 -46 -89 -26 -323 -147 -415 -215 -72 -54 -80 -63 -64 -72 30 -16 190 0 315 32 63 16 156 37 205 46 50 9 133 27 185 40 52 13 145 33 205 45 124 24 261 61 320 85 22 10 137 64 255 120 229 111 432 185 563 205 l78 13 52 -52 c59 -58 204 -141 248 -141 15 0 54 9 85 21 l56 21 -34 20 c-80 48 -105 90 -88 144 7 19 17 34 23 34 7 0 23 -21 37 -48 17 -31 42 -58 75 -80 78 -51 107 -56 210 -40 l90 14 -48 30 c-27 16 -77 47 -110 69 l-62 40 0 56 c0 73 20 98 173 227 144 122 195 176 254 272 118 190 148 362 118 673 -19 187 -12 246 39 344 48 92 86 127 194 179 64 30 261 84 310 84 24 0 21 19 -12 71 -58 90 -134 140 -234 154 -27 4 -105 2 -173 -6 -121 -12 -126 -12 -188 10 -75 26 -149 33 -230 20z m-56 -147 c-120 -92 -223 -218 -290 -354 -39 -79 -48 -59 -18 42 16 55 77 160 121 207 41 44 145 119 153 110 3 -3 17 1 32 9 40 21 41 16 2 -14z m231 -33 c35 -24 37 -56 8 -93 -15 -19 -30 -26 -54 -26 -63 0 -89 80 -39 119 33 26 48 26 85 0z m-1312 -1375 c-68 -71 -252 -175 -409 -232 -144 -53 -210 -61 -210 -26 0 20 42 38 212 95 110 36 191 71 288 124 74 40 139 74 144 74 6 1 -6 -15 -25 -35z"/>
<path d="M8210 7213 c-14 -2 -90 -18 -170 -34 -80 -17 -188 -38 -240 -47 l-95 -16 31 -30 c28 -28 33 -44 58 -176 15 -80 45 -226 66 -325 51 -232 93 -500 87 -542 -5 -30 -4 -33 16 -28 43 11 204 45 375 80 196 40 228 51 289 101 55 45 91 101 116 179 42 133 -13 257 -143 326 -25 13 -47 25 -49 26 -2 2 10 29 28 62 25 47 31 71 31 120 0 78 -29 156 -82 215 -60 69 -106 89 -208 92 -47 1 -96 0 -110 -3z m153 -260 c26 -25 28 -33 25 -80 -7 -81 -46 -111 -188 -146 -135 -32 -126 -33 -138 15 -19 73 -44 199 -40 202 1 1 50 12 108 24 132 27 192 23 233 -15z m127 -422 c16 -16 32 -41 36 -57 10 -40 -22 -94 -72 -121 -41 -23 -292 -85 -298 -74 -4 6 -56 218 -56 227 0 2 12 4 28 4 15 0 72 11 127 24 55 13 124 24 153 25 46 1 57 -3 82 -28z"/>
<path d="M7041 6977 l-105 -22 -16 -100 c-10 -55 -22 -118 -28 -140 -14 -48 -93 -522 -121 -720 -11 -77 -25 -156 -31 -175 -15 -50 -15 -50 38 -34 26 8 85 24 132 35 l85 20 2 91 c2 50 5 99 8 108 4 13 49 28 173 59 92 22 186 47 210 53 41 12 44 11 62 -12 39 -51 82 -151 78 -180 -4 -27 -3 -28 26 -24 81 14 242 47 248 51 4 2 -1 14 -12 26 -12 12 -55 85 -97 162 -120 219 -317 544 -396 652 -40 55 -83 116 -97 136 -14 20 -32 37 -40 36 -8 0 -62 -10 -119 -22z m105 -308 c14 -29 49 -88 78 -133 71 -110 129 -207 125 -210 -15 -11 -289 -86 -314 -86 -11 0 -3 54 29 201 19 85 38 182 41 217 4 34 9 62 11 62 2 0 15 -23 30 -51z"/>
<path d="M5970 6760 c-69 -11 -181 -28 -250 -40 -69 -11 -140 -20 -159 -20 l-34 0 25 -23 c31 -29 32 -31 58 -187 31 -185 88 -484 109 -575 27 -113 44 -236 39 -290 -3 -37 -1 -44 12 -39 8 3 71 17 140 31 69 14 127 26 128 28 2 2 -5 12 -16 23 -11 11 -25 44 -30 74 -6 29 -19 97 -29 150 l-19 97 46 10 c127 27 111 31 188 -51 109 -115 172 -191 178 -216 5 -19 11 -22 31 -17 13 3 61 12 106 21 45 8 102 19 127 25 l45 10 -152 154 c-84 85 -153 158 -153 163 0 5 20 29 44 54 61 64 89 141 89 243 0 92 -21 156 -81 244 -90 130 -211 166 -442 131z m196 -239 c48 -22 80 -60 94 -111 18 -69 -20 -129 -99 -154 -63 -20 -252 -59 -258 -52 -6 5 -52 252 -53 278 0 18 10 21 155 44 108 16 114 16 161 -5z"/>
<path d="M4800 6554 c-197 -53 -364 -209 -422 -397 -26 -84 -30 -220 -9 -307 50 -203 223 -372 428 -415 133 -28 243 -16 363 41 102 48 223 169 273 275 68 140 81 250 47 383 -27 106 -73 188 -150 266 -140 141 -350 202 -530 154z m260 -260 c109 -49 158 -106 186 -216 36 -141 -22 -305 -127 -358 -41 -21 -49 -18 -24 10 14 16 14 29 -5 136 -31 176 -44 232 -57 245 -18 18 -57 6 -71 -23 -11 -23 -9 -42 17 -140 17 -62 35 -143 42 -180 8 -52 15 -68 28 -68 12 0 10 -5 -8 -19 -27 -21 -114 -36 -134 -24 -7 5 -12 32 -12 68 -1 66 -30 253 -47 298 -16 42 -52 63 -85 48 -30 -14 -31 -11 22 -206 20 -77 46 -152 57 -167 l19 -28 -33 6 c-140 26 -260 196 -243 344 17 146 121 265 262 299 56 14 151 3 213 -25z"/>
<path d="M3960 6394 c-58 -13 -119 -23 -136 -24 -42 0 -47 -8 -18 -34 22 -19 29 -42 56 -204 26 -148 29 -185 19 -192 -8 -4 -64 -18 -125 -30 -61 -12 -153 -33 -204 -46 -52 -14 -95 -24 -97 -22 -3 3 -27 104 -70 305 -10 46 -15 95 -11 113 5 28 4 31 -11 25 -10 -3 -74 -15 -143 -27 -69 -11 -127 -22 -129 -24 -3 -3 5 -11 16 -19 30 -21 50 -81 73 -222 11 -67 28 -155 39 -196 63 -234 142 -605 138 -645 -4 -37 -2 -42 12 -36 9 3 74 18 144 32 81 17 122 29 113 34 -23 13 -44 82 -81 268 -36 184 -36 190 12 190 13 0 98 16 190 35 92 19 175 35 184 35 17 0 23 -24 69 -276 23 -128 25 -165 8 -182 -15 -15 -2 -28 14 -14 7 6 75 21 151 33 l137 23 -24 25 c-31 33 -26 18 -102 389 -109 530 -127 642 -110 690 4 12 4 21 -1 21 -4 -1 -55 -12 -113 -25z"/>
<path d="M2465 6113 c-52 -13 -157 -60 -217 -99 -231 -148 -300 -471 -161 -749 54 -107 127 -180 238 -235 218 -110 444 -85 632 70 80 67 156 158 147 179 -14 35 -78 395 -76 432 0 13 -22 11 -161 -18 -89 -18 -197 -36 -239 -39 -75 -7 -76 -7 -67 -31 16 -42 39 -153 39 -187 l0 -33 103 28 c56 16 109 28 118 29 10 0 20 -16 28 -47 26 -102 28 -96 -31 -136 -79 -53 -142 -70 -241 -65 -145 8 -228 64 -291 198 -27 57 -31 75 -31 155 0 80 3 97 29 148 35 69 80 111 154 145 99 45 259 38 321 -14 l28 -24 18 47 c10 25 39 68 65 95 l47 49 -81 43 c-45 25 -99 49 -121 55 -39 11 -211 13 -250 4z"/>
<path d="M6075 4564 c-35 -38 -34 -87 4 -125 18 -17 40 -29 56 -29 16 0 38 12 56 29 60 61 26 151 -58 151 -24 0 -41 -8 -58 -26z"/>
<path d="M5766 4501 c-43 -44 -42 -103 2 -142 45 -40 84 -39 128 5 27 27 34 42 34 72 0 87 -104 128 -164 65z"/>
<path d="M5439 4421 c-20 -20 -29 -39 -29 -61 0 -38 47 -90 82 -90 50 0 107 73 91 117 -23 67 -94 84 -144 34z"/>
</g>
</svg>