<svg xmlns="http://www.w3.org/2000/svg" width="24" height="24" viewBox="0 0 48 48">
  <path fill="#EA4335" d="M24 9.5c3.4 0 6.1 1.2 7.5 2.2l5.5-5.5C34.6 3.5 29.7 1 24 1 14.9 1 7.1 7.1 4.1 15.5l6 4.7C11 15.2 17.4 9.5 24 9.5z"></path>
  <path fill="#34A853" d="M24 9.5c6.6 0 12 5.4 12 12s-5.4 12-12 12-12-5.4-12-12 5.4-12 12-12z"></path>
  <path fill="#FBBC05" d="M24 33.5c-5.3 0-9.8-3.1-11.6-7.4l-6 4.7C7.1 40.9 14.9 47 24 47c5.7 0 10.6-2.5 13.5-6.7l-5.5-5.5c-1.4 1-4.1 2.2-7.5 2.2z"></path>
  <path fill="#4285F4" d="M44.5 24c0-1.3-.1-2.3-.5-3H24v6h11.9c-.5 2.6-2 4.8-4.1 6.3l5.5 5.5C42.3 36.2 44.5 30.5 44.5 24z"></path>
</svg>
